<?xml version="1.0" standalone="no"?>
<!DOCTYPE svg PUBLIC "-//W3C//DTD SVG 20010904//EN"
 "http://www.w3.org/TR/2001/REC-SVG-20010904/DTD/svg10.dtd">
<svg version="1.0" xmlns="http://www.w3.org/2000/svg"
 width="96.000000pt" height="96.000000pt" viewBox="0 0 96.000000 96.000000"
 preserveAspectRatio="xMidYMid meet">
<metadata>
Created by potrace 1.14, written by Peter Selinger 2001-2017
</metadata>
<g transform="translate(0.000000,96.000000) scale(0.100000,-0.100000)"
fill="#000000" stroke="none">
<path d="M160 947 c-49 -16 -133 -102 -148 -153 -16 -56 -17 -557 0 -622 8
-35 25 -60 63 -98 73 -73 95 -77 440 -72 l280 3 45 28 c53 34 93 86 109 142
15 56 15 551 -1 613 -16 65 -95 144 -160 160 -61 16 -578 15 -628 -1z"/>
</g>
</svg>
